<svg width="500" height="500" xmlns="http://www.w3.org/2000/svg"><path fill="none" d="M-1-1h502v502H-1z"/><g><g stroke="null" fill-rule="evenodd" fill="#BBCF22"><path d="M97.569 324.234c9.358-15.99 26.19-52.387 26.133-78.829-.04-25.16-17.101-62.972-26.263-79.209-.766-1.204.904-2.888 2.261-1.845 17.853 15.99 64.374 59.744 64.374 81.063 0 21.172-46.064 64.406-64.204 80.607-.99.994-3.313.107-2.288-1.774l-.013-.013zM307.5 146.726c-.574-.801.268-2.485 1.813-1.509 23.872 20.509 93.44 81.838 93.44 100.036 0 18.18-69.532 79.442-93.417 99.95-1.053.892-2.705-.192-1.787-1.558 15.122-20.777 52.852-74.941 52.852-98.428 0-23.5-37.806-77.763-52.901-98.49zm0 0"/><path d="M167.15 488.25c36.356-45.625 140.131-184.332 140.131-238.353 0-54.062-104.102-191.622-140.435-238.17-1.11-1.379-3.408.094-2.597 1.72 23.092 45.383 80.673 163.397 80.673 236.432 0 73.012-57.236 192.298-80.369 236.718-.886 1.796 1.51 2.978 2.597 1.662v-.01zm0 0"/></g></g></svg>